<?xml version="1.0" encoding="UTF-8" standalone="no"?>
<!-- Created with Inkscape (http://www.inkscape.org/) -->

<svg
   width="210mm"
   height="297mm"
   viewBox="0 0 210 297"
   version="1.1"
   id="svg1912"
   inkscape:version="1.2 (dc2aeda, 2022-05-15)"
   sodipodi:docname="about.svg"
   xmlns:inkscape="http://www.inkscape.org/namespaces/inkscape"
   xmlns:sodipodi="http://sodipodi.sourceforge.net/DTD/sodipodi-0.dtd"
   xmlns="http://www.w3.org/2000/svg"
   xmlns:svg="http://www.w3.org/2000/svg">
  <sodipodi:namedview
     id="namedview1914"
     pagecolor="#ffffff"
     bordercolor="#000000"
     borderopacity="0.25"
     inkscape:showpageshadow="2"
     inkscape:pageopacity="0.0"
     inkscape:pagecheckerboard="0"
     inkscape:deskcolor="#d1d1d1"
     inkscape:document-units="mm"
     showgrid="false"
     inkscape:zoom="0.84096521"
     inkscape:cx="305.00667"
     inkscape:cy="419.75577"
     inkscape:window-width="1470"
     inkscape:window-height="920"
     inkscape:window-x="0"
     inkscape:window-y="36"
     inkscape:window-maximized="0"
     inkscape:current-layer="g4448" />
  <defs
     id="defs1909" />
  <g
     inkscape:label="Layer 1"
     inkscape:groupmode="layer"
     id="layer1">
    <g
       id="g4448"
       transform="matrix(2.460736,0,0,2.49525,-41.947811,-63.506207)">
      <path
         d="m 19.765812,58.713415 c 0,0 8.195028,-20.727813 27.123321,-12.024079 8.423981,3.8735 16.145582,3.383492 23.414568,2.893131 9.06392,-0.611364 17.423696,-1.222375 25.562633,6.626931 C 110.53307,70.353671 80.335644,109.84644 50.328364,95.416064 36.63106,88.828644 13.33044,77.897471 19.765812,58.713415"
         style="fill:#e4f6fb;fill-opacity:0;fill-rule:nonzero;stroke:none;stroke-width:0.0352778"
         id="path130" />
      <path
         d="m 53.403175,96.561181 c 0.02011,0.498828 0.461434,0.973667 1.006828,0.973667 0.545395,0 0.987073,-0.474839 1.006475,-0.973667 h -2.013303"
         style="fill:#191d21;fill-opacity:1;fill-rule:nonzero;stroke:none;stroke-width:0.0352778"
         id="path134" />
      <path
         d="m 57.488695,96.613392 c 0.01976,0.498475 0.461081,0.973314 1.006475,0.973314 0.545395,0 0.987072,-0.474839 1.006475,-0.973314 h -2.01295"
         style="fill:#191d21;fill-opacity:1;fill-rule:nonzero;stroke:none;stroke-width:0.0352778"
         id="path136" />
      <path
         d="m 67.078254,96.561181 c -0.02011,0.498828 -0.461433,0.973667 -1.006828,0.973667 -0.545394,0 -0.986719,-0.474839 -1.006475,-0.973667 h 2.013303"
         style="fill:#191d21;fill-opacity:1;fill-rule:nonzero;stroke:none;stroke-width:0.0352778"
         id="path138" />
      <path
         d="m 62.993087,96.613392 c -0.02011,0.498475 -0.461433,0.973314 -1.006828,0.973314 -0.545394,0 -0.987072,-0.474839 -1.006475,-0.973314 h 2.013303"
         style="fill:#191d21;fill-opacity:1;fill-rule:nonzero;stroke:none;stroke-width:0.0352778"
         id="path140" />
      <path
         d="m 53.274411,96.459581 -0.0035,0.03457 c 0,0.01129 0.0025,-0.105128 0.0035,-0.03457"
         style="fill:#767c7b;fill-opacity:1;fill-rule:nonzero;stroke:none;stroke-width:0.0352778"
         id="path142" />
      <path
         d="m 55.54877,96.485686 -0.0035,-0.03387 c 0.0014,-0.06174 0.0035,0.0448 0.0035,0.03387"
         style="fill:#767c7b;fill-opacity:1;fill-rule:nonzero;stroke:none;stroke-width:0.0352778"
         id="path144" />
      <path
         d="m 54.410003,95.329634 c 0.1397,0 0.271992,0.02928 0.395817,0.0769 L 59.106534,94.2713 c -0.01976,-0.05186 -0.03387,-0.107597 -0.03387,-0.166864 v -1.176161 c 0,-0.26035 0.211667,-0.471664 0.472017,-0.471664 h 0.08925 V 81.572005 H 60.881 v 10.884606 h 0.131234 c 0.26035,0 0.471311,0.211314 0.471311,0.471664 v 1.176161 c 0,0.06597 -0.01376,0.128764 -0.0381,0.185561 l 4.230158,1.116542 c 0.123825,-0.04727 0.256117,-0.0769 0.395817,-0.0769 0.617009,0 1.116542,0.516114 1.135592,1.129947 -3.53e-4,0.01905 -7.06e-4,0.04868 -7.06e-4,0.1016 h -2.269419 c 0,-0.05786 -3.53e-4,-0.09066 -7.06e-4,-0.109361 0.0071,-0.24765 0.09384,-0.475897 0.23495,-0.662517 l -3.710164,-0.979311 0.504825,0.573617 0.02046,-0.0021 c 0.617009,0 1.116542,0.516467 1.135239,1.129947 0,0.01905 -3.53e-4,0.04868 -7.05e-4,0.101953 h -2.26942 c 0,-0.05821 0,-0.09102 -3.53e-4,-0.109714 0.01199,-0.413103 0.244123,-0.7747 0.582789,-0.969081 l -0.842786,-0.958144 h -0.700617 l -0.842786,0.958144 c 0.33902,0.194381 0.570795,0.555978 0.583142,0.969434 -3.53e-4,0.0187 -7.06e-4,0.05115 -7.06e-4,0.109361 H 57.36063 c -3.53e-4,-0.05327 -3.53e-4,-0.0829 -7.06e-4,-0.101953 0.0187,-0.61348 0.518231,-1.129947 1.135239,-1.129947 l 0.02046,0.0021 0.504825,-0.573617 -3.710164,0.979311 c 0.141111,0.18662 0.227895,0.414867 0.23495,0.662517 -3.53e-4,0.0187 -3.53e-4,0.05151 -3.53e-4,0.109361 h -2.269772 c 0,-0.05292 -3.53e-4,-0.08255 -7.06e-4,-0.1016 0.01905,-0.613833 0.518584,-1.129947 1.135592,-1.129947"
         style="fill:#5d6363;fill-opacity:1;fill-rule:nonzero;stroke:none;stroke-width:0.0352778"
         id="path146" />
      <path
         d="m 57.359931,96.511439 -0.0035,0.03457 c 0,0.01129 0.0021,-0.105127 0.0035,-0.03457"
         style="fill:#767c7b;fill-opacity:1;fill-rule:nonzero;stroke:none;stroke-width:0.0352778"
         id="path148" />
      <path
         d="m 59.633937,96.537545 -0.0032,-0.03351 c 0.0011,-0.06209 0.0032,0.04445 0.0032,0.03351"
         style="fill:#767c7b;fill-opacity:1;fill-rule:nonzero;stroke:none;stroke-width:0.0352778"
         id="path150" />
      <path
         d="m 67.210546,96.494153 -0.0035,-0.03457 c 0.0011,-0.07056 0.0035,0.04586 0.0035,0.03457"
         style="fill:#767c7b;fill-opacity:1;fill-rule:nonzero;stroke:none;stroke-width:0.0352778"
         id="path152" />
      <path
         d="m 64.936187,96.45182 -0.0035,0.03387 c 0,0.01094 0.0021,-0.0956 0.0035,-0.03387"
         style="fill:#767c7b;fill-opacity:1;fill-rule:nonzero;stroke:none;stroke-width:0.0352778"
         id="path154" />
      <path
         d="m 63.125379,96.546011 -0.0039,-0.03457 c 0.0014,-0.07055 0.0039,0.04586 0.0039,0.03457"
         style="fill:#767c7b;fill-opacity:1;fill-rule:nonzero;stroke:none;stroke-width:0.0352778"
         id="path156" />
      <path
         d="m 60.85102,96.503678 -0.0035,0.03387 c 0,0.01094 0.0021,-0.0956 0.0035,-0.03387"
         style="fill:#767c7b;fill-opacity:1;fill-rule:nonzero;stroke:none;stroke-width:0.0352778"
         id="path158" />
      <path
         d="m 51.999473,78.789646 c 1.618191,-1.574094 2.831747,-2.886075 2.7305,-10.495492 -0.05256,-3.940881 2.553053,-6.154209 5.16255,-6.445956 0.202494,-0.02258 0.406753,-0.02258 0.6096,0 2.609145,0.291747 5.214409,2.505075 5.162198,6.445956 -0.101248,7.609417 1.112308,8.921398 2.7305,10.495492 0.563386,0.547864 1.382889,1.347612 0.924983,2.373137 -0.252942,0.566914 -0.821972,0.890058 -1.280583,0.945797 -1.571625,0.191911 -5.115984,0.569736 -7.841898,0.457553 -2.726267,0.112183 -6.270273,-0.265642 -7.84225,-0.457553 -0.458259,-0.05574 -1.027642,-0.378883 -1.280584,-0.945797 -0.457905,-1.025525 0.36195,-1.825273 0.924984,-2.373137"
         style="fill:#767c7b;fill-opacity:1;fill-rule:nonzero;stroke:none;stroke-width:0.0352778"
         id="path160" />
      <path
         d="m 64.44759,78.454508 c 0,0 1.187097,2.477205 0.953911,3.500614 0,0 -5.820128,0.949677 -10.448926,0.01482 0,0 0.347839,-3.025775 0.614892,-3.51543 h 8.880123"
         style="fill:#619aa2;fill-opacity:1;fill-rule:nonzero;stroke:none;stroke-width:0.0352778"
         id="path162" />
      <path
         d="m 63.11162,92.963906 c 0,0 -0.133702,1.268589 0.166512,1.63583 0.300566,0.367242 1.835855,2.169937 0.835025,2.770717 -1.001537,0.600781 -3.071284,0.433917 -3.338337,0 -0.267053,-0.433917 0.578556,-4.406547 0.578556,-4.406547 h 1.758244"
         style="fill:#191d21;fill-opacity:1;fill-rule:nonzero;stroke:none;stroke-width:0.0352778"
         id="path164" />
      <path
         d="m 63.11162,92.963906 c 0,0 2.670176,-6.942667 2.470151,-10.347679 -0.05609,-0.953558 -0.279753,-2.030236 -0.881239,-2.798939 -0.37712,-0.481542 -1.127831,-0.893586 -1.770239,-0.763411 -1.65735,0.335844 -1.33597,3.309409 -1.34867,4.510264 -0.03281,3.089275 -0.250472,6.170437 -0.229305,9.265356 3.52e-4,0.0448 3.52e-4,0.08961 0.0011,0.134409 h 1.758244"
         style="fill:#7bbec5;fill-opacity:1;fill-rule:nonzero;stroke:none;stroke-width:0.0352778"
         id="path166" />
      <path
         d="m 57.357815,92.963906 c 0,0 0.13335,1.268589 -0.166864,1.63583 -0.300567,0.367242 -1.836209,2.169937 -0.834673,2.770717 1.001537,0.600781 3.070931,0.433917 3.337984,0 0.267405,-0.433917 -0.578203,-4.406547 -0.578203,-4.406547 h -1.758244"
         style="fill:#191d21;fill-opacity:1;fill-rule:nonzero;stroke:none;stroke-width:0.0352778"
         id="path168" />
      <path
         d="m 57.357815,92.963906 c 0,0 -2.670176,-6.942667 -2.470151,-10.347679 0.05574,-0.953558 0.279753,-2.030236 0.881239,-2.798939 0.37712,-0.481542 1.127478,-0.893586 1.769887,-0.763411 1.657702,0.335844 1.336322,3.309409 1.349022,4.510264 0.03246,3.089275 0.250119,6.170437 0.228953,9.265356 0,0.0448 -3.53e-4,0.08961 -7.06e-4,0.134409 h -1.758244"
         style="fill:#7bbec5;fill-opacity:1;fill-rule:nonzero;stroke:none;stroke-width:0.0352778"
         id="path170" />
      <path
         d="m 56.81877,67.267923 1.915936,-0.674863 h 2.445456 l 1.915936,0.674863 c 0.561622,0.197909 0.94227,0.696737 0.964495,1.264356 l 0.386997,9.922229 h -4.490156 -4.490156 l 0.386998,-9.922229 c 0.02222,-0.567619 0.402872,-1.066447 0.964494,-1.264356"
         style="fill:#6488ce;fill-opacity:1;fill-rule:nonzero;stroke:none;stroke-width:0.0352778"
         id="path172" />
      <path
         d="m 57.834065,66.91056 c 0,0 -1.955095,0.10548 -3.334809,1.752247 -1.379714,1.646767 -3.916892,4.673247 -3.516136,6.89857 h 6.587067 l 0.263878,-8.650817"
         style="fill:#6488ce;fill-opacity:1;fill-rule:nonzero;stroke:none;stroke-width:0.0352778"
         id="path174" />
      <path
         d="m 62.62902,67.103529 c 0,0 3.575756,1.6764 4.821767,4.132439 1.246364,2.456039 1.82492,2.545292 1.82492,2.545292 0,0 -0.578556,1.068211 -0.444853,2.00272 H 62.62902 v -8.680451"
         style="fill:#6488ce;fill-opacity:1;fill-rule:nonzero;stroke:none;stroke-width:0.0352778"
         id="path176" />
      <path
         d="m 71.233977,75.939907 c 0,0 0.316794,-1.837266 -0.776464,-1.830916 -1.092906,0.006 -1.092906,1.850672 -1.092906,1.850672 l 1.86937,-0.01976"
         style="fill:#191d21;fill-opacity:1;fill-rule:nonzero;stroke:none;stroke-width:0.0352778"
         id="path178" />
      <path
         d="m 69.275707,73.78126 c 0,0 1.446742,-0.845608 2.5146,0 1.068564,0.845608 0.734483,2.158647 0.734483,2.158647 0,0 -0.734483,0.04445 -1.290813,0 0,0 -0.100189,-0.579966 -0.127,-1.299633 -0.0085,-0.22472 -0.165101,-0.413456 -0.380648,-0.477661 -0.272344,-0.08149 -0.627239,-0.119592 -0.827616,0.130528 -0.355953,0.444852 -0.534106,1.666522 -0.534106,1.666522 0,0 -0.623006,0.202494 -0.645231,-0.175683 -0.02222,-0.378178 0.556331,-2.00272 0.556331,-2.00272"
         style="fill:#f6b0a3;fill-opacity:1;fill-rule:nonzero;stroke:none;stroke-width:0.0352778"
         id="path180" />
      <path
         d="m 61.555518,66.725351 v -2.290939 h -2.437342 v 2.158648 c 0,0 0.636411,0.776463 2.437342,0.132291"
         style="fill:#f78d7d;fill-opacity:1;fill-rule:nonzero;stroke:none;stroke-width:0.0352778"
         id="path182" />
      <path
         d="m 64.168543,61.760709 h -6.71054 l -0.46355,-2.391833 c -0.28963,-1.493661 0.286103,-3.040592 1.518709,-3.932767 0.657578,-0.475897 1.465086,-0.756003 2.338211,-0.756003 0.04586,0 0.09172,7.06e-4 0.137231,0.0025 2.449689,0.08255 4.198761,2.415117 3.675592,4.809773 l -0.495653,2.268361"
         style="fill:#ca4727;fill-opacity:1;fill-rule:nonzero;stroke:none;stroke-width:0.0352778"
         id="path184" />
      <path
         d="m 57.398031,60.98107 c 0,2.246489 1.436511,4.067881 3.208514,4.067881 1.772003,0 3.208162,-1.821392 3.208162,-4.067881 0,-2.246136 -1.436159,-4.067528 -3.208162,-4.067528 -1.772003,0 -3.208514,1.821392 -3.208514,4.067528"
         style="fill:#f78d7d;fill-opacity:1;fill-rule:nonzero;stroke:none;stroke-width:0.0352778"
         id="path186" />
      <path
         d="m 63.43159,61.343373 c -0.09102,0.533047 0.02681,0.997656 0.262819,1.037872 0.236009,0.04022 0.500945,-0.359127 0.591962,-0.892175 0.09066,-0.533047 -0.02681,-0.997655 -0.26282,-1.037872 -0.236008,-0.04022 -0.501297,0.359128 -0.591961,0.892175"
         style="fill:#f78d7d;fill-opacity:1;fill-rule:nonzero;stroke:none;stroke-width:0.0352778"
         id="path188" />
      <path
         d="m 57.825245,61.343373 c 0.09102,0.533047 -0.02681,0.997656 -0.262819,1.037872 -0.236009,0.04022 -0.500945,-0.359127 -0.591609,-0.892175 -0.09066,-0.533047 0.02681,-0.997655 0.26282,-1.037872 0.236008,-0.04022 0.500944,0.359128 0.591608,0.892175"
         style="fill:#f78d7d;fill-opacity:1;fill-rule:nonzero;stroke:none;stroke-width:0.0352778"
         id="path190" />
      <path
         d="m 57.22129,56.541009 0.01023,0.04057 c 0.176389,0.67945 0.995892,0.936273 1.543756,0.497417 0.573969,-0.459669 1.402644,-0.885825 2.260247,-0.885825 0.816681,0 1.492956,0.322439 1.937809,0.613481 l 0.0074,0.0046 c 0.36195,0.237772 0.987778,1.188861 1.132769,1.65735 0.430742,1.393472 -0.0032,1.779058 -0.0032,1.779058 -0.576791,-0.304094 -0.975077,-0.851253 -1.097139,-1.47708 -0.436738,0.535869 -1.10243,0.878064 -1.84785,0.878064 h -2.785533 c -0.964847,0 -1.78047,-0.760237 -1.796345,-1.725084 -0.0092,-0.55633 0.240947,-1.054805 0.637823,-1.382536"
         style="fill:#ca4727;fill-opacity:1;fill-rule:nonzero;stroke:none;stroke-width:0.0352778"
         id="path192" />
      <path
         d="M 24.276782,76.436619 H 91.864069 V 75.29891 H 24.276782 v 1.137709"
         style="fill:#999e9c;fill-opacity:1;fill-rule:nonzero;stroke:none;stroke-width:0.0352778"
         id="path194" />
      <path
         d="M 34.86188,81.012147 H 81.808138 V 80.306591 H 34.86188 Z"
         style="fill:#999e9c;fill-opacity:1;fill-rule:nonzero;stroke:none;stroke-width:0.0352778"
         id="path196" />
      <path
         d="m 79.841049,77.557746 h 3.934178 v -1.121127 h -3.934178 v 1.121127"
         style="fill:#767c7b;fill-opacity:1;fill-rule:nonzero;stroke:none;stroke-width:0.0352778"
         id="path198" />
      <path
         d="m 81.278972,99.604948 h 1.058333 V 77.557746 h -1.058333 v 22.047202"
         style="fill:#767c7b;fill-opacity:1;fill-rule:nonzero;stroke:none;stroke-width:0.0352778"
         id="path200" />
      <path
         d="m 32.365624,77.557746 h 3.934178 v -1.121127 h -3.934178 v 1.121127"
         style="fill:#767c7b;fill-opacity:1;fill-rule:nonzero;stroke:none;stroke-width:0.0352778"
         id="path202" />
      <path
         d="M 33.803546,99.604948 H 34.86188 V 77.557746 h -1.058334 v 22.047202"
         style="fill:#767c7b;fill-opacity:1;fill-rule:nonzero;stroke:none;stroke-width:0.0352778"
         id="path204" />
      <path
         d="m 44.403108,75.29891 h -6.61035 c 0,-0.602897 0.48895,-1.091847 1.091847,-1.091847 h 4.427009 c 0.602897,0 1.091494,0.48895 1.091494,1.091847"
         style="fill:#767c7b;fill-opacity:1;fill-rule:nonzero;stroke:none;stroke-width:0.0352778"
         id="path206" />
      <path
         d="m 40.274197,74.156263 -4.637264,-12.473165 -0.27305,0.1016 4.636911,12.473165"
         style="fill:#767c7b;fill-opacity:1;fill-rule:nonzero;stroke:none;stroke-width:0.0352778"
         id="path208" />
      <path
         d="m 32.760735,63.347504 14.031737,-7.693026 0.818445,1.723673 0.263525,-0.125236 -0.951089,-2.00272 -14.302671,7.841898 0.140053,0.255411"
         style="fill:#767c7b;fill-opacity:1;fill-rule:nonzero;stroke:none;stroke-width:0.0352778"
         id="path210" />
      <path
         d="m 36.080022,61.733898 c 0,0.31997 -0.259645,0.579261 -0.579614,0.579261 -0.31997,0 -0.579614,-0.259291 -0.579614,-0.579261 0,-0.320322 0.259644,-0.579967 0.579614,-0.579967 0.319969,0 0.579614,0.259645 0.579614,0.579967"
         style="fill:#767c7b;fill-opacity:1;fill-rule:nonzero;stroke:none;stroke-width:0.0352778"
         id="path212" />
      <path
         d="m 44.754122,56.897315 c 0,0.319969 -0.259644,0.579613 -0.579614,0.579613 -0.319969,0 -0.579967,-0.259644 -0.579967,-0.579613 0,-0.31997 0.259998,-0.579262 0.579967,-0.579262 0.31997,0 0.579614,0.259292 0.579614,0.579262"
         style="fill:#767c7b;fill-opacity:1;fill-rule:nonzero;stroke:none;stroke-width:0.0352778"
         id="path214" />
      <path
         d="m 47.135372,55.52007 c 0,0.204964 -0.166158,0.371122 -0.371122,0.371122 -0.204964,0 -0.371122,-0.166158 -0.371122,-0.371122 0,-0.204964 0.166158,-0.371122 0.371122,-0.371122 0.204964,0 0.371122,0.166158 0.371122,0.371122"
         style="fill:#767c7b;fill-opacity:1;fill-rule:nonzero;stroke:none;stroke-width:0.0352778"
         id="path216" />
      <path
         d="m 38.413999,60.017634 0.0042,0.0448 c 0.0078,0.09102 0.02328,0.315736 0.02328,0.630767 0.0021,1.116189 -0.202847,3.353858 -1.609372,4.803422 l 0.209903,0.202495 c 1.496483,-1.554339 1.688747,-3.859037 1.690864,-5.005917 0,-0.432859 -0.02858,-0.702381 -0.02893,-0.706614 l -0.289984,0.03104"
         style="fill:#767c7b;fill-opacity:1;fill-rule:nonzero;stroke:none;stroke-width:0.0352778"
         id="path218" />
      <path
         d="m 48.70735,57.565123 -1.748014,0.828675 -0.106539,-0.224367 c -0.183444,-0.386997 -0.0187,-0.849136 0.3683,-1.03258 l 0.347134,-0.164748 c 0.386997,-0.183444 0.848783,-0.01834 1.03258,0.3683 l 0.106539,0.22472"
         style="fill:#767c7b;fill-opacity:1;fill-rule:nonzero;stroke:none;stroke-width:0.0352778"
         id="path222" />
      <path
         d="m 53.892125,74.376396 h 12.908493 c 0.248003,0 0.449086,-0.201083 0.449086,-0.449439 V 66.32636 c 0,-0.248356 -0.201083,-0.449439 -0.449086,-0.449439 H 53.892125 c -0.248002,0 -0.449439,0.201083 -0.449439,0.449439 v 7.600597 c 0,0.248356 0.201437,0.449439 0.449439,0.449439"
         style="fill:#4f5052;fill-opacity:1;fill-rule:nonzero;stroke:none;stroke-width:0.0352778"
         id="path224" />
      <path
         d="m 58.232703,75.218477 h 2.111023 l 1.058333,-5.172076 h -2.111022 l -1.058334,5.172076"
         style="fill:#5d6363;fill-opacity:1;fill-rule:nonzero;stroke:none;stroke-width:0.0352778"
         id="path226" />
      <path
         d="m 62.965218,74.376396 h -2.449337 l 0.886178,-4.329995 1.563159,4.329995"
         style="fill:#3a3c41;fill-opacity:1;fill-rule:nonzero;stroke:none;stroke-width:0.0352778"
         id="path228" />
      <path
         d="m 60.515881,74.376396 v 0 l 0.886178,-4.329995 -0.886178,4.329995"
         style="fill:#42484c;fill-opacity:1;fill-rule:nonzero;stroke:none;stroke-width:0.0352778"
         id="path230" />
      <path
         d="m 80.404083,70.543465 c 0,0 -2.391834,0.0628 -1.792112,-2.619375 0.599723,-2.681817 1.424517,-2.834217 0.313973,-4.228395 -1.110545,-1.39453 1.203678,-3.007783 2.501194,-2.334683 0.998714,0.518583 0.56127,1.932164 0.370417,2.778125 -0.310445,1.377245 0.155928,2.193573 0.706614,3.400425 0.302683,0.663223 0.7112,1.955448 0.168628,2.584803 -0.570795,0.661811 -2.268714,0.4191 -2.268714,0.4191"
         style="fill:#74a543;fill-opacity:1;fill-rule:nonzero;stroke:none;stroke-width:0.0352778"
         id="path232" />
      <path
         d="m 80.284844,62.547404 c 0.207433,0.691091 0.351366,1.402644 0.413808,2.126897 0.03598,0.362303 0.0381,0.728839 0.01199,1.097845 -0.01446,0.366183 -0.152753,0.754239 -0.188737,1.060802 -0.04269,0.334434 -0.01058,0.687917 0.0321,1.035756 0.0374,0.349956 0.112889,0.698147 0.182739,1.047045 0.155575,0.695325 0.334786,1.389944 0.535517,2.082094 -0.315031,-0.649111 -0.575381,-1.325033 -0.773642,-2.022475 -0.189442,-0.6985 -0.356658,-1.416756 -0.288925,-2.177697 0.01799,-0.185914 0.08079,-0.394053 0.117828,-0.545395 0.04304,-0.164041 0.06985,-0.335844 0.08784,-0.509058 0.04092,-0.346075 0.04551,-0.700617 0.03916,-1.055511 -0.02046,-0.710142 -0.08114,-1.425223 -0.169686,-2.140303"
         style="fill:#98d350;fill-opacity:1;fill-rule:nonzero;stroke:none;stroke-width:0.0352778"
         id="path234" />
      <path
         d="m 81.220058,71.291354 c 0,0 -2.270125,-0.756355 -0.791634,-3.073047 1.478139,-2.316692 2.305756,-2.178756 1.737078,-3.868209 -0.568325,-1.689453 2.157589,-2.41688 3.147131,-1.341614 0.762353,0.82797 -0.130881,2.008012 -0.598664,2.738262 -0.762,1.188508 -0.601839,2.114903 -0.495653,3.437114 0.05821,0.726722 0.0018,2.081036 -0.723194,2.487436 -0.762353,0.427214 -2.275064,-0.379942 -2.275064,-0.379942"
         style="fill:#98d350;fill-opacity:1;fill-rule:nonzero;stroke:none;stroke-width:0.0352778"
         id="path236" />
      <path
         d="m 83.834847,63.734501 c -0.04057,0.72002 -0.14852,1.437922 -0.33655,2.140656 -0.08961,0.352425 -0.213078,0.697794 -0.363009,1.035755 -0.138641,0.339373 -0.401108,0.656873 -0.539397,0.932745 -0.153811,0.299861 -0.244828,0.643114 -0.323144,0.984603 -0.08431,0.341841 -0.131939,0.694619 -0.185209,1.046691 -0.09102,0.706614 -0.159102,1.420989 -0.206375,2.139951 -0.07514,-0.71755 -0.08925,-1.441803 -0.0381,-2.165351 0.06033,-0.721077 0.148167,-1.453091 0.471311,-2.145594 0.08043,-0.168628 0.210256,-0.3429 0.297039,-0.47237 0.09596,-0.1397 0.179917,-0.291747 0.255764,-0.44838 0.156634,-0.311856 0.282222,-0.643114 0.397228,-0.978959 0.222956,-0.674511 0.409575,-1.367366 0.570442,-2.069747"
         style="fill:#74a543;fill-opacity:1;fill-rule:nonzero;stroke:none;stroke-width:0.0352778"
         id="path238" />
      <path
         d="m 83.163158,75.323957 h -3.658659 l -0.521405,-3.810705 h 4.875036 l -0.694972,3.810705"
         style="fill:#edb149;fill-opacity:1;fill-rule:nonzero;stroke:none;stroke-width:0.0352778"
         id="path240" />
      <path
         d="m 84.415872,70.234432 -0.247297,1.356078 h -5.502629 l -0.185561,-1.356078 h 5.935487"
         style="fill:#d6973f;fill-opacity:1;fill-rule:nonzero;stroke:none;stroke-width:0.0352778"
         id="path242" />
      <path
         d="m 52.37545,59.499257 -6.023328,2.855736 -0.367242,-0.774347 c -0.631825,-1.332795 -0.06385,-2.925586 1.268942,-3.557411 l 1.196975,-0.56762 c 1.332795,-0.631825 2.925939,-0.0635 3.557764,1.269295 l 0.366889,0.774347"
         style="display:inline;fill:#bbbab8;fill-opacity:1;fill-rule:nonzero;stroke:none;stroke-width:0.0352778"
         id="path220" />
    </g>
  </g>
</svg>
